# xmcd
#
# Track frame offsets: 
#        150
#        20993
#        35249
#        53373
#        71008
#        96126
#        130618
#        149225
#        168684
#        187133
#        206889
#        224148
#        250288
#
# Disc length: 3527 seconds
#
# Revision: 1
# Processed by: cddbd v1.5.2PL0 Copyright (c) Steve Scherf et al.
# Submitted via: ExactAudioCopy v1.1
#
DISCID=dd0dc50d
DTITLE=Peter Karp - Alabama Town
DYEAR=2017
DGENRE=Blues Rock
TTITLE0=Alabama Town
TTITLE1='Til You Get Home
TTITLE2=That's How I Like It
TTITLE3=Blues in Mind
TTITLE4=I'm Not Giving Up
TTITLE5=Her and My Blues
TTITLE6=The Prophet
TTITLE7=Kiss the Bride
TTITLE8=Nobody Really Knows
TTITLE9=Lost Highway
TTITLE10=Y'all Be Lookin'
TTITLE11=I Walk Alone
TTITLE12=Beautiful Girl
EXTD=
EXTT0=
EXTT1=
EXTT2=
EXTT3=
EXTT4=
EXTT5=
EXTT6=
EXTT7=
EXTT8=
EXTT9=
EXTT10=
EXTT11=
EXTT12=
PLAYORDER=
